<svg xmlns="http://www.w3.org/2000/svg" xmlns:xlink="http://www.w3.org/1999/xlink" viewBox="0 0 224.52 92.41"><defs><style>.cls-1{fill:none;}.cls-2{fill:#2a4993;}.cls-3{clip-path:url(#clip-path);}.cls-4{fill:url(#名称未設定グラデーション_16);}.cls-5{clip-path:url(#clip-path-2);}.cls-6{fill:url(#名称未設定グラデーション_16-2);}.cls-7{clip-path:url(#clip-path-3);}.cls-8{fill:url(#名称未設定グラデーション_16-3);}.cls-9{clip-path:url(#clip-path-4);}.cls-10{fill:url(#名称未設定グラデーション_16-4);}.cls-11{clip-path:url(#clip-path-5);}.cls-12{fill:url(#名称未設定グラデーション_16-5);}</style><clipPath id="clip-path"><path class="cls-1" d="M55.89,75.51l.08-.07a.3.3,0,0,0-.08.07M51.35,65a3.83,3.83,0,0,0,.24,2.73c1,2.06,2.77,1.6,3.51,2.87,2,3.36,1.15,4.57.87,4.85.58-.48,3.59-2.94,2.31-9.23A3.93,3.93,0,0,0,55.74,63a3.63,3.63,0,0,0-1.17-.19A3.34,3.34,0,0,0,51.35,65"/></clipPath><linearGradient id="名称未設定グラデーション_16" x1="-4.43" y1="947.46" x2="-2.26" y2="947.46" gradientTransform="matrix(0, -5.84, -5.84, 0, 5590.49, 49.65)" gradientUnits="userSpaceOnUse"><stop offset="0" stop-color="#86aedd"/><stop offset="0.09" stop-color="#7da7d8"/><stop offset="0.23" stop-color="#6394cc"/><stop offset="0.35" stop-color="#4980bf"/><stop offset="1" stop-color="#223c77"/></linearGradient><clipPath id="clip-path-2"><path class="cls-1" d="M29,19.46s2.82.9,7.32,6.08c1.45,1.67,2.38,4.06,4.84,6.47A5.84,5.84,0,0,0,45,33.67a5.21,5.21,0,0,0,4.93-5.33,5.91,5.91,0,0,0-3.32-5.16,29.1,29.1,0,0,0-14.43-4,12.06,12.06,0,0,0-3.12.29"/></clipPath><linearGradient id="名称未設定グラデーション_16-2" x1="-121.26" y1="893.4" x2="-119.09" y2="893.4" gradientTransform="matrix(9.62, 0, 0, -9.62, 1195.03, 8616.93)" xlink:href="#名称未設定グラデーション_16"/><clipPath id="clip-path-3"><path class="cls-1" d="M101.78,11.85a74,74,0,0,1-8.36,9.91s12.14-1.32,15.52-4.35a4.73,4.73,0,0,0,1.72-3.5A4.71,4.71,0,0,0,106,9.39a5.2,5.2,0,0,0-4.24,2.46"/></clipPath><linearGradient id="名称未設定グラデーション_16-3" x1="-129.05" y1="902.26" x2="-126.88" y2="902.26" gradientTransform="matrix(7.95, 0, 0, -7.95, 1118.7, 7184.09)" xlink:href="#名称未設定グラデーション_16"/><clipPath id="clip-path-4"><path class="cls-1" d="M116.07,11.2c0,4.42,13.09,9.5,13.09,9.5s-4.36-10.18-5-11.49a4,4,0,0,0-3.63-2.55,4.6,4.6,0,0,0-4.47,4.54"/></clipPath><linearGradient id="名称未設定グラデーション_16-4" x1="-5.57" y1="932.91" x2="-3.4" y2="932.91" gradientTransform="matrix(0, -6.47, -6.47, 0, 6157.15, -15.36)" xlink:href="#名称未設定グラデーション_16"/><clipPath id="clip-path-5"><path class="cls-1" d="M213.45,36.41c-.94,1-7.83,8.57-7.83,8.57s12.95-.53,14.35-4.39c1-2.69-.41-4.91-2.57-5.32a5.19,5.19,0,0,0-1.05-.11,4,4,0,0,0-2.9,1.25"/></clipPath><linearGradient id="名称未設定グラデーション_16-5" x1="-31.51" y1="763.31" x2="-29.34" y2="763.31" gradientTransform="translate(395.66 -4550.75) scale(6.01)" xlink:href="#名称未設定グラデーション_16"/></defs><g id="Layer_2" data-name="Layer 2"><g id="レイヤー_1" data-name="レイヤー 1"><path class="cls-2" d="M62.79,91.13A2.16,2.16,0,0,1,60.49,89a3,3,0,0,1,1-2.1c.92-.9,5.64-5.07,8.54-8.33,2.24-2.48,4.09-4.71,4.09-7.52,0-2.36-1.31-3.7-3.83-3.7s-4.4,1.4-5.52,4.43A2,2,0,0,1,62.85,73a1.81,1.81,0,0,1-2-1.78c0-1.79,2.49-7.69,10.4-7.69,5.68,0,9.12,3,9.12,7.94,0,4.41-2.26,6.22-7,10a73.81,73.81,0,0,1-6.64,4.66.32.32,0,0,0-.16.29c0,.16.1.31.38.31l4-.06,6.89-.13h.06a2.4,2.4,0,0,1,2.65,2.33,2.42,2.42,0,0,1-2.68,2.33Z"/><path class="cls-2" d="M98.32,87v1.69a2.64,2.64,0,1,1-5.26,0V87H83a2.33,2.33,0,0,1-2.59-2.55A4.3,4.3,0,0,1,81.14,82l11.7-16.74a3.55,3.55,0,0,1,2.9-1.44,2.39,2.39,0,0,1,2.58,2.46V82.65h2.3a2,2,0,0,1,2,2.2,1.94,1.94,0,0,1-1.92,2.1ZM93,79.81c0-1.28.1-5,.35-8.42v-.16c0-.25,0-.35-.1-.35s-.15.1-.28.29c-1.4,2.2-1.85,2.9-3.42,5,0,0-2.61,3.47-4.24,5.77a.77.77,0,0,0-.09.32c0,.22.09.41.45.41H93Z"/><path class="cls-2" d="M123.89,82.65c2.71,2.52,6.48,3.44,9.57,4.08a2.4,2.4,0,0,1,2.1,2.36,2.51,2.51,0,0,1-2.64,2.49c-1.37,0-7-1.82-10.78-6.64,0,.74,0,1.57,0,2.52v2.59a2.25,2.25,0,1,1-4.5,0V87.46c0-.67.07-1.34.1-2C113.75,90.11,107,92,106.35,92a1.46,1.46,0,0,1-1.59-1.4A1.82,1.82,0,0,1,106,88.93a22.11,22.11,0,0,0,8.52-6.28H111a3.25,3.25,0,0,1-3.54-3.25V72.76A3.21,3.21,0,0,1,111,69.51h6.69V67.63H107.18a1.48,1.48,0,1,1,0-2.94h10.49V64a2.25,2.25,0,0,1,4.5,0v.73h11a1.48,1.48,0,1,1,0,2.94h-11v1.88h6.57c2.3,0,3.83,1.34,3.83,3.25V79.4c0,2.1-1.44,3.25-3.51,3.25Zm-6.22-10.52h-4.78a.87.87,0,0,0-.93.79v1.82h5.71Zm0,5.06H112V79.3a1,1,0,0,0,1,.86h4.75Zm10.43-4.27a.88.88,0,0,0-.92-.79h-5v2.61h5.93Zm0,4.27h-5.93v3h5a.92.92,0,0,0,1-.86Z"/><path class="cls-2" d="M138.55,91a1.62,1.62,0,0,1-1.68-1.59,1.88,1.88,0,0,1,.95-1.56,20.23,20.23,0,0,0,5-4.95,2.47,2.47,0,0,1,2-1.05,2.62,2.62,0,0,1,2.62,2.52,2.81,2.81,0,0,1-.87,1.95c-1.88,2-6.72,4.68-8.07,4.68m.2-22.64A1.62,1.62,0,0,1,137,66.73a1.65,1.65,0,0,1,1.76-1.65h10.42v-.8A2.58,2.58,0,0,1,152,61.89a2.5,2.5,0,0,1,2.78,2.39v.8h10.59a1.64,1.64,0,0,1,0,3.28ZM154.56,81v6.82c0,3-1.78,4.59-4.88,4.59a14.39,14.39,0,0,1-4.62-.89A1.53,1.53,0,0,1,144,90a1.57,1.57,0,0,1,1.62-1.56c.1,0,.19,0,.29,0a13.35,13.35,0,0,0,1.79.16c1.66,0,2.07-.57,2.07-1.53V81h-5.87c-2.1,0-3.73-1-3.73-3.1V73.37c0-2.11,1.63-3,3.73-3h16.39c2.07,0,3.67.76,3.67,3V77.9c0,2.13-1.63,3.06-3.67,3.06Zm4.56-6.64c0-.51-.31-.95-1.21-.95H146.18c-.86,0-1.21.44-1.21.95V77c0,.61.38,1,1.21,1h11.73c.8,0,1.21-.35,1.21-1Zm2.72,15.37A44,44,0,0,0,157.15,85a1.85,1.85,0,0,1-.7-1.4,1.62,1.62,0,0,1,1.78-1.57c1.31,0,5.17,2,7.11,3.67a3.21,3.21,0,0,1,1.25,2.42A2.65,2.65,0,0,1,164,90.84a3,3,0,0,1-2.2-1.15"/><g class="cls-3"><rect class="cls-4" x="51.09" y="62.83" width="8.47" height="12.68"/></g><path class="cls-2" d="M28.93,50.06a4.33,4.33,0,0,1-4.53,4.41,4.34,4.34,0,0,1-4.58-4.41V9.68H3.55C1.2,9.68,0,8.19,0,6.64S1.2,3.55,3.55,3.55h47.2c2.52,0,3.84,1.55,3.84,3.09s-1.26,3-3.84,3H28.93Z"/><path class="cls-2" d="M61.81,18.16c-2.24,0-3.32-1.38-3.32-2.81s1.14-2.81,3.32-2.81H73.15c3.95,0,5.61,2.29,5.61,5.21,0,5.33-4.35,20.11-16.21,29.33a3.9,3.9,0,0,1-2.35.86,2.8,2.8,0,0,1-3-2.75,3.72,3.72,0,0,1,1.26-2.63c7.84-8,11-20.34,11-23.14a1.15,1.15,0,0,0-1.2-1.26Zm46.39,18.9c2.64,1.43,3.73,3.43,3.73,5.38a5.2,5.2,0,0,1-5.1,5.16A6.19,6.19,0,0,1,103,46.17c-7.39-5.62-11.8-13.75-14.38-22.86.12,3.67.23,7.28.23,8.14V46.57c0,5.55-3.78,7.84-8.64,7.84a23.63,23.63,0,0,1-9.29-2.17,3.25,3.25,0,0,1-2.06-2.87,2.49,2.49,0,0,1,2.58-2.52,4.24,4.24,0,0,1,.86.12,21,21,0,0,0,4.81.69c2.58,0,3-1.09,3-2.87v-41C80.08,1.26,82.26,0,84.43,0s4.41,1.26,4.41,3.78v7.5a43.09,43.09,0,0,0,3.78,9.28c2.21,4.11,10.43,13.69,15.58,16.5"/><path class="cls-2" d="M121.25,30.44a1.65,1.65,0,0,0-1.6-1.82h-1.92a2.79,2.79,0,0,1-3-2.72,2.69,2.69,0,0,1,3-2.61h6a5.06,5.06,0,0,1,5.39,5.11V40.59c1.75,2.84,3.29,4.93,15.25,4.93,5.16,0,12.37-.39,19.06-1H164a3.68,3.68,0,0,1,4,3.75,4.52,4.52,0,0,1-4.54,4.48c-3.57.17-7.71.22-11.68.22-13.44,0-20.25-.11-24.84-7.43-4.48,7.27-6.63,8.29-8.39,8.29a4.82,4.82,0,0,1-4.6-4.66,4.17,4.17,0,0,1,2.39-3.63,40.14,40.14,0,0,0,4.88-3.11Zm17.69,11.74c-3.63,0-6.18-2.27-6.18-6.24V21.25c0-3,2.15-5.16,6.23-5.16h3.41a11.4,11.4,0,0,0,.73-1.87,2.85,2.85,0,0,1,.86-1.36H132.13a2.39,2.39,0,1,1,0-4.77h6.75a29.25,29.25,0,0,0-2-3.11,3.21,3.21,0,0,1-.68-1.87A2.49,2.49,0,0,1,138.88.72c2.72,0,7.49,3.35,7.49,6.41a2.69,2.69,0,0,1-.17,1h4.87a4.2,4.2,0,0,1,.35-1,33,33,0,0,0,2.43-4.25,3.57,3.57,0,0,1,3.4-2.44c2,0,4,1.59,4,3.52,0,1.13-.46,2.15-2.9,4.13h6.81a2.39,2.39,0,1,1,0,4.77H150.05a2.1,2.1,0,0,1,1,1.59,2.25,2.25,0,0,1-.91,1.59l-.11.05h8.11c4.08,0,6.18,2.1,6.18,5.28V35.94c0,4-2,6.24-6.18,6.24Zm18-20.64c0-.74-.46-1.37-1.93-1.37H142.06c-1.25,0-1.87.52-1.87,1.31v1.59h16.73Zm0,5.61H140.19v3.18h16.73Zm0,7.2H140.19v1.87c0,.85.51,1.42,1.87,1.42h13.21c1.19,0,1.65-.51,1.65-1.42Z"/><g class="cls-5"><rect class="cls-6" x="29.02" y="19.17" width="20.87" height="14.5"/></g><g class="cls-7"><rect class="cls-8" x="93.42" y="9.39" width="17.24" height="12.37"/></g><g class="cls-9"><rect class="cls-10" x="116.07" y="6.66" width="13.09" height="14.04"/></g><path class="cls-2" d="M220.78,45.58a53.29,53.29,0,0,1-6.05-1,47.75,47.75,0,0,1-9.07,1.26h0a.81.81,0,0,1-.6-1.35l3-3.27a10.09,10.09,0,0,1-2.66-4.32h6.61c.45-.48.78-.84.95-1h0a4.89,4.89,0,0,1,4.68-1.36,4.29,4.29,0,0,1,2.94,2.1l.14.27a2.39,2.39,0,1,0-.15-4.75H213V26.53h5.1a2.4,2.4,0,1,0,0-4.77H213V20.12a3.7,3.7,0,0,0-4-3.63,3.6,3.6,0,0,0-3.86,3.63v1.64h-6.86V20.12a3.64,3.64,0,0,0-3.92-3.57c-2,0-3.91,1.19-3.91,3.57v1.64h-3.8a2.39,2.39,0,1,0,0,4.77h3.8v5.56H184.2a2.27,2.27,0,0,0-1.53.56,95.34,95.34,0,0,0,.79-13.15V16.09h32.1c2.89,0,5.61-1.36,5.61-4.88V7c0-3.23-2.49-4.88-5.61-4.88h-34.2C177.56,2.14,175,4.52,175,8v11c0,13.89-1,23.48-4,30.28a4.17,4.17,0,0,0-.4,1.7,2.4,2.4,0,0,0,2.39,2.5,3.56,3.56,0,0,0,2.89-1.76,42.2,42.2,0,0,0,6.24-15.88,2.25,2.25,0,0,0,2,1.08H188v10c-1.25.11-2.56.17-4,.28a3.6,3.6,0,0,0,.11,7.2c.91,0,6.07-.67,18.49-4.53a2.58,2.58,0,0,0,2-2.44A2.33,2.33,0,0,0,202.17,45a1.49,1.49,0,0,0-.51.06c-2.15.34-4,.63-5.73.85V36.85h3.64c4.42,16.1,19.9,16.9,20.24,16.9a4.53,4.53,0,0,0,4.71-4.43c0-1.75-1.13-3.4-3.74-3.74M183.46,8.38a1.44,1.44,0,0,1,1.47-1.31h26.55A1.42,1.42,0,0,1,213,8.32v1.93c0,.8-.46,1.25-1.53,1.25h-28Zm14.86,18.15h6.86v5.56h-6.86Z"/><g class="cls-11"><rect class="cls-12" x="206.15" y="31.23" width="14.27" height="17.68" transform="translate(106.12 228.78) rotate(-71.05)"/></g></g></g></svg>