<?xml version="1.0" encoding="utf-8"?>
<!-- Generator: Adobe Illustrator 28.0.0, SVG Export Plug-In . SVG Version: 6.00 Build 0)  -->
<svg version="1.1" id="Layer_1" xmlns="http://www.w3.org/2000/svg" xmlns:xlink="http://www.w3.org/1999/xlink" x="0px" y="0px"
	 viewBox="0 0 32.89 32.89" style="enable-background:new 0 0 32.89 32.89;" xml:space="preserve">
<style type="text/css">
	.st0{fill:#2B63AD;}
	.st1{fill:#FFFFFF;}
</style>
<g id="Logo">
	<path id="Initiator" class="st0" d="M32.89,16.45C32.89,7.36,25.53,0,16.45,0S0,7.36,0,16.45c0,7.71,5.31,14.18,12.47,15.96V21.47
		H9.08v-5.03h3.39v-2.17c0-5.6,2.53-8.19,8.03-8.19c1.04,0,2.84,0.2,3.58,0.41v4.56c-0.39-0.04-1.06-0.06-1.9-0.06
		c-2.7,0-3.74,1.02-3.74,3.68v1.78h5.37l-0.92,5.03h-4.45v11.3C26.58,31.79,32.89,24.86,32.89,16.45z"/>
	<path id="F" class="st1" d="M22.89,21.47l0.92-5.03h-5.37v-1.78c0-2.66,1.04-3.68,3.74-3.68c0.84,0,1.51,0.02,1.9,0.06V6.5
		c-0.74-0.2-2.53-0.41-3.58-0.41c-5.5,0-8.03,2.59-8.03,8.19v2.17H9.08v5.03h3.39v10.94c1.27,0.32,2.6,0.48,3.97,0.48
		c0.67,0,1.34-0.04,1.99-0.12v-11.3H22.89z"/>
</g>
</svg>
