<?xml version="1.0" encoding="utf-8"?>
<!-- Generator: Adobe Illustrator 28.0.0, SVG Export Plug-In . SVG Version: 6.00 Build 0)  -->
<svg version="1.1" id="Layer_1" xmlns="http://www.w3.org/2000/svg" xmlns:xlink="http://www.w3.org/1999/xlink" x="0px" y="0px"
	 viewBox="0 0 32.48 32.48" style="enable-background:new 0 0 32.48 32.48;" xml:space="preserve">
<style type="text/css">
	.st0{fill:#3EAF57;}
	.st1{fill:#FFFFFF;}
</style>
<g>
	<path class="st0" d="M25.15,32.48H7.32C3.28,32.48,0,29.2,0,25.15V7.32C0,3.28,3.28,0,7.32,0h17.83c4.04,0,7.32,3.28,7.32,7.32
		v17.83C32.48,29.2,29.2,32.48,25.15,32.48z"/>
	<g>
		<g>
			<g>
				<path class="st1" d="M27.06,14.71c0-4.84-4.86-8.79-10.83-8.79c-5.97,0-10.83,3.94-10.83,8.79c0,4.34,3.85,7.98,9.06,8.67
					c0.35,0.08,0.83,0.23,0.95,0.53c0.11,0.27,0.07,0.7,0.04,0.98c0,0-0.13,0.76-0.15,0.93c-0.05,0.27-0.22,1.07,0.94,0.58
					c1.16-0.49,6.24-3.67,8.51-6.29h0C26.31,18.39,27.06,16.65,27.06,14.71z"/>
			</g>
			<g>
				<path class="st0" d="M23.46,17.51h-3.04h0c-0.11,0-0.21-0.09-0.21-0.21v0v0v-4.72v0v0c0-0.11,0.09-0.21,0.21-0.21h0h3.04
					c0.11,0,0.21,0.09,0.21,0.21v0.77c0,0.11-0.09,0.21-0.21,0.21h-2.07v0.8h2.07c0.11,0,0.21,0.09,0.21,0.21v0.77
					c0,0.11-0.09,0.21-0.21,0.21h-2.07v0.8h2.07c0.11,0,0.21,0.09,0.21,0.21v0.77C23.67,17.41,23.57,17.51,23.46,17.51z"/>
				<path class="st0" d="M12.21,17.51c0.11,0,0.21-0.09,0.21-0.21v-0.77c0-0.11-0.09-0.21-0.21-0.21h-2.07v-3.75
					c0-0.11-0.09-0.21-0.21-0.21H9.17c-0.11,0-0.21,0.09-0.21,0.21v4.72v0v0c0,0.11,0.09,0.21,0.21,0.21h0H12.21z"/>
				<path class="st0" d="M14.04,12.37h-0.77c-0.11,0-0.21,0.09-0.21,0.21v4.73c0,0.11,0.09,0.21,0.21,0.21h0.77
					c0.11,0,0.21-0.09,0.21-0.21v-4.73C14.25,12.46,14.15,12.37,14.04,12.37z"/>
				<path class="st0" d="M19.27,12.37H18.5c-0.11,0-0.21,0.09-0.21,0.21v2.81l-2.16-2.92c-0.01-0.01-0.01-0.01-0.02-0.02
					c0,0,0,0,0,0c0,0-0.01-0.01-0.01-0.01c0,0,0,0,0,0c0,0-0.01-0.01-0.01-0.01c0,0,0,0-0.01,0c0,0-0.01-0.01-0.01-0.01
					c0,0,0,0-0.01,0c0,0-0.01,0-0.01-0.01c0,0,0,0-0.01,0c0,0-0.01,0-0.01-0.01c0,0,0,0-0.01,0c0,0-0.01,0-0.01,0c0,0,0,0-0.01,0
					c0,0-0.01,0-0.01,0c0,0-0.01,0-0.01,0c0,0-0.01,0-0.01,0c0,0-0.01,0-0.01,0c0,0,0,0-0.01,0h-0.76c-0.11,0-0.21,0.09-0.21,0.21
					v4.73c0,0.11,0.09,0.21,0.21,0.21h0.77c0.11,0,0.21-0.09,0.21-0.21v-2.81l2.16,2.92c0.01,0.02,0.03,0.04,0.05,0.05c0,0,0,0,0,0
					c0,0,0.01,0.01,0.01,0.01c0,0,0,0,0.01,0c0,0,0.01,0,0.01,0c0,0,0.01,0,0.01,0c0,0,0,0,0.01,0c0,0,0.01,0,0.01,0c0,0,0,0,0,0
					c0.02,0,0.04,0.01,0.05,0.01h0.76c0.11,0,0.21-0.09,0.21-0.21v-4.73C19.47,12.46,19.38,12.37,19.27,12.37z"/>
			</g>
		</g>
	</g>
</g>
</svg>
