<?xml version="1.0" encoding="utf-8"?>
<!-- Generator: Adobe Illustrator 28.0.0, SVG Export Plug-In . SVG Version: 6.00 Build 0)  -->
<svg version="1.1" id="Layer_1" xmlns="http://www.w3.org/2000/svg" xmlns:xlink="http://www.w3.org/1999/xlink" x="0px" y="0px"
	 viewBox="0 0 282.5 53.86" style="enable-background:new 0 0 282.5 53.86;" xml:space="preserve">
<style type="text/css">
	.st0{fill:#094E8F;}
	.st1{fill:url(#SVGID_1_);}
	.st2{fill:url(#SVGID_00000093870503488111997310000010195753460070212497_);}
	.st3{fill:url(#SVGID_00000030468090094859553830000002085734955567385526_);}
	.st4{fill:url(#SVGID_00000065775505784627603850000010781692916312153472_);}
	.st5{fill:url(#SVGID_00000122693102497630015280000009442999845023324844_);}
	.st6{fill:url(#SVGID_00000103956893075558268610000003198602560179426224_);}
	.st7{fill:url(#SVGID_00000156572666933514935970000010435524478627153587_);}
	.st8{fill:url(#SVGID_00000179615130138933756810000000042283517837129864_);}
	.st9{fill:url(#SVGID_00000179625165325350083840000017113623931181416833_);}
	.st10{fill:url(#SVGID_00000091000832684420340090000017569260095765832865_);}
</style>
<g>
	<g>
		<path class="st0" d="M246.73,45.27c2.25,2.09,5.38,2.86,7.94,3.39c1.22,0.26,1.75,1.11,1.75,1.96c0,1.03-0.79,2.07-2.2,2.07
			c-1.14,0-5.83-1.51-8.95-5.51c0.03,0.61,0.03,1.3,0.03,2.09v2.14c0,1.3-0.93,1.96-1.85,1.96c-0.95,0-1.88-0.66-1.88-1.96v-2.14
			c0-0.56,0.05-1.11,0.08-1.64c-3.34,3.84-8.98,5.38-9.48,5.38c-0.82,0-1.32-0.56-1.32-1.16c0-0.5,0.32-1.03,1.06-1.35
			c2.65-1.17,5.03-2.73,7.07-5.22h-2.97c-1.69,0-2.94-1.06-2.94-2.7v-5.51c0-1.59,1.14-2.7,2.94-2.7h5.56V32.8h-8.71
			c-0.93,0-1.38-0.61-1.38-1.22c0-0.61,0.45-1.22,1.38-1.22h8.71v-0.61c0-1.22,0.93-1.8,1.88-1.8c0.93,0,1.85,0.58,1.85,1.8v0.61
			h9.11c0.93,0,1.38,0.61,1.38,1.22c0,0.61-0.45,1.22-1.38,1.22h-9.11v1.56h5.45c1.91,0,3.18,1.11,3.18,2.7v5.51
			c0,1.75-1.19,2.7-2.91,2.7H246.73z M241.57,36.53h-3.97c-0.45,0-0.77,0.32-0.77,0.66v1.51h4.74V36.53z M241.57,40.74h-4.74v1.75
			c0,0.32,0.32,0.72,0.79,0.72h3.95V40.74z M250.23,37.19c0-0.32-0.32-0.66-0.77-0.66h-4.16v2.17h4.93V37.19z M250.23,40.74h-4.93
			v2.46h4.13c0.48,0,0.79-0.37,0.79-0.72V40.74z"/>
		<path class="st0" d="M258.91,52.21c-0.85,0-1.4-0.64-1.4-1.32c0-0.45,0.24-0.93,0.79-1.3c1.48-0.95,2.83-2.33,4.18-4.1
			c0.48-0.64,1.09-0.87,1.67-0.87c1.14,0,2.17,0.93,2.17,2.09c0,0.53-0.21,1.09-0.72,1.62C264.05,49.96,260.02,52.21,258.91,52.21z
			 M259.07,33.41c-0.98,0-1.46-0.66-1.46-1.35c0-0.69,0.5-1.38,1.46-1.38h8.66v-0.66c0-1.3,1.19-1.99,2.36-1.99s2.3,0.66,2.3,1.99
			v0.66h8.79c0.9,0,1.32,0.69,1.32,1.35c0,0.69-0.42,1.38-1.32,1.38H259.07z M272.2,43.87v5.67c0,2.49-1.48,3.81-4.05,3.81
			c-1.09,0-2.38-0.24-3.84-0.74c-0.61-0.21-0.9-0.71-0.9-1.22c0-0.64,0.5-1.3,1.35-1.3c0.08,0,0.16,0.03,0.24,0.03
			c0.58,0.08,1.09,0.13,1.48,0.13c1.38,0,1.72-0.48,1.72-1.27v-5.11h-4.87c-1.75,0-3.1-0.79-3.1-2.57v-3.73
			c0-1.75,1.35-2.49,3.1-2.49h13.61c1.72,0,3.05,0.64,3.05,2.46v3.79c0,1.77-1.35,2.54-3.05,2.54H272.2z M275.99,38.36
			c0-0.42-0.26-0.79-1.01-0.79h-9.74c-0.71,0-1.01,0.37-1.01,0.79v2.22c0,0.5,0.32,0.79,1.01,0.79h9.74c0.66,0,1.01-0.29,1.01-0.79
			V38.36z M278.24,51.12c-1.24-1.4-2.17-2.38-3.89-3.87c-0.4-0.34-0.58-0.77-0.58-1.17c0-0.69,0.56-1.3,1.48-1.3
			c1.09,0,4.29,1.67,5.9,3.04c0.74,0.64,1.03,1.35,1.03,2.01c0,1.19-0.95,2.22-2.12,2.22C279.49,52.08,278.82,51.78,278.24,51.12z"
			/>
	</g>
	<g>
		<path class="st0" d="M246.73,45.27c2.25,2.09,5.38,2.86,7.94,3.39c1.22,0.26,1.75,1.11,1.75,1.96c0,1.03-0.79,2.07-2.2,2.07
			c-1.14,0-5.83-1.51-8.95-5.51c0.03,0.61,0.03,1.3,0.03,2.09v2.14c0,1.3-0.93,1.96-1.85,1.96c-0.95,0-1.88-0.66-1.88-1.96v-2.14
			c0-0.56,0.05-1.11,0.08-1.64c-3.34,3.84-8.98,5.38-9.48,5.38c-0.82,0-1.32-0.56-1.32-1.16c0-0.5,0.32-1.03,1.06-1.35
			c2.65-1.17,5.03-2.73,7.07-5.22h-2.97c-1.69,0-2.94-1.06-2.94-2.7v-5.51c0-1.59,1.14-2.7,2.94-2.7h5.56V32.8h-8.71
			c-0.93,0-1.38-0.61-1.38-1.22c0-0.61,0.45-1.22,1.38-1.22h8.71v-0.61c0-1.22,0.93-1.8,1.88-1.8c0.93,0,1.85,0.58,1.85,1.8v0.61
			h9.11c0.93,0,1.38,0.61,1.38,1.22c0,0.61-0.45,1.22-1.38,1.22h-9.11v1.56h5.45c1.91,0,3.18,1.11,3.18,2.7v5.51
			c0,1.75-1.19,2.7-2.91,2.7H246.73z M241.57,36.53h-3.97c-0.45,0-0.77,0.32-0.77,0.66v1.51h4.74V36.53z M241.57,40.74h-4.74v1.75
			c0,0.32,0.32,0.72,0.79,0.72h3.95V40.74z M250.23,37.19c0-0.32-0.32-0.66-0.77-0.66h-4.16v2.17h4.93V37.19z M250.23,40.74h-4.93
			v2.46h4.13c0.48,0,0.79-0.37,0.79-0.72V40.74z"/>
		<path class="st0" d="M258.91,52.21c-0.85,0-1.4-0.64-1.4-1.32c0-0.45,0.24-0.93,0.79-1.3c1.48-0.95,2.83-2.33,4.18-4.1
			c0.48-0.64,1.09-0.87,1.67-0.87c1.14,0,2.17,0.93,2.17,2.09c0,0.53-0.21,1.09-0.72,1.62C264.05,49.96,260.02,52.21,258.91,52.21z
			 M259.07,33.41c-0.98,0-1.46-0.66-1.46-1.35c0-0.69,0.5-1.38,1.46-1.38h8.66v-0.66c0-1.3,1.19-1.99,2.36-1.99s2.3,0.66,2.3,1.99
			v0.66h8.79c0.9,0,1.32,0.69,1.32,1.35c0,0.69-0.42,1.38-1.32,1.38H259.07z M272.2,43.87v5.67c0,2.49-1.48,3.81-4.05,3.81
			c-1.09,0-2.38-0.24-3.84-0.74c-0.61-0.21-0.9-0.71-0.9-1.22c0-0.64,0.5-1.3,1.35-1.3c0.08,0,0.16,0.03,0.24,0.03
			c0.58,0.08,1.09,0.13,1.48,0.13c1.38,0,1.72-0.48,1.72-1.27v-5.11h-4.87c-1.75,0-3.1-0.79-3.1-2.57v-3.73
			c0-1.75,1.35-2.49,3.1-2.49h13.61c1.72,0,3.05,0.64,3.05,2.46v3.79c0,1.77-1.35,2.54-3.05,2.54H272.2z M275.99,38.36
			c0-0.42-0.26-0.79-1.01-0.79h-9.74c-0.71,0-1.01,0.37-1.01,0.79v2.22c0,0.5,0.32,0.79,1.01,0.79h9.74c0.66,0,1.01-0.29,1.01-0.79
			V38.36z M278.24,51.12c-1.24-1.4-2.17-2.38-3.89-3.87c-0.4-0.34-0.58-0.77-0.58-1.17c0-0.69,0.56-1.3,1.48-1.3
			c1.09,0,4.29,1.67,5.9,3.04c0.74,0.64,1.03,1.35,1.03,2.01c0,1.19-0.95,2.22-2.12,2.22C279.49,52.08,278.82,51.78,278.24,51.12z"
			/>
	</g>
	<g>
		<path class="st0" d="M247.62,24.7c-1.22,0-2-0.86-2-1.89c0-0.61,0.28-1.25,0.86-1.84c0.81-0.78,4.92-4.42,7.46-7.26
			c1.95-2.17,3.56-4.12,3.56-6.57c0-2.06-1.14-3.23-3.34-3.23c-2.23,0-3.84,1.22-4.81,3.87c-0.25,0.72-0.97,1.09-1.67,1.09
			c-0.83,0-1.7-0.53-1.7-1.56c0-1.56,2.17-6.71,9.07-6.71c4.95,0,7.96,2.64,7.96,6.93c0,3.84-1.98,5.43-6.12,8.68
			c-2.17,1.7-4.09,3-5.79,4.06c-0.08,0.06-0.14,0.14-0.14,0.25c0,0.14,0.08,0.28,0.33,0.28l3.45-0.06l6.01-0.11
			c0.03,0,0.03,0,0.06,0c1.53,0,2.31,1,2.31,2.03c0,1-0.78,2.03-2.34,2.03H247.62z"/>
		<path class="st0" d="M278.63,21.06v1.47c0,1.64-1.14,2.45-2.31,2.45c-1.14,0-2.28-0.81-2.28-2.45v-1.47h-8.76
			c-1.7,0-2.25-1.09-2.25-2.23c0-0.81,0.25-1.61,0.61-2.11l10.21-14.61c0.58-0.83,1.59-1.25,2.53-1.25c1.17,0,2.25,0.7,2.25,2.14
			v14.3h2c1.17,0,1.75,0.97,1.75,1.92c0,0.92-0.56,1.84-1.67,1.84H278.63z M274.01,14.83c0-1.11,0.08-4.34,0.31-7.35
			c0-0.06,0-0.11,0-0.14c0-0.22-0.03-0.31-0.08-0.31s-0.14,0.08-0.25,0.25c-1.22,1.92-1.61,2.53-2.98,4.4c0,0-2.28,3.03-3.7,5.04
			c-0.03,0.06-0.08,0.17-0.08,0.28c0,0.19,0.08,0.36,0.39,0.36h6.4V14.83z"/>
		<linearGradient id="SVGID_1_" gradientUnits="userSpaceOnUse" x1="240.7346" y1="11.0743" x2="240.7346" y2="0.0136">
			<stop  offset="0" style="stop-color:#73B1E1"/>
			<stop  offset="0.0609" style="stop-color:#6AACDD"/>
			<stop  offset="0.162" style="stop-color:#4E9ED5"/>
			<stop  offset="0.2903" style="stop-color:#008BC9"/>
			<stop  offset="0.3475" style="stop-color:#0083C3"/>
			<stop  offset="1" style="stop-color:#174173"/>
		</linearGradient>
		<path class="st1" d="M240.92,6.79c-0.65-1.11-2.2-0.71-3.07-2.51c-0.38-0.94-0.43-1.72-0.21-2.38c0.51-1.51,2.3-2.24,3.84-1.72
			c1.01,0.34,1.9,1.2,2.21,2.78c1.19,5.85-1.87,7.91-2.08,8.12C241.6,11.07,242.93,10.22,240.92,6.79z"/>
	</g>
	<g>
		<path class="st0" d="M247.62,24.7c-1.22,0-2-0.86-2-1.89c0-0.61,0.28-1.25,0.86-1.84c0.81-0.78,4.92-4.42,7.46-7.26
			c1.95-2.17,3.56-4.12,3.56-6.57c0-2.06-1.14-3.23-3.34-3.23c-2.23,0-3.84,1.22-4.81,3.87c-0.25,0.72-0.97,1.09-1.67,1.09
			c-0.83,0-1.7-0.53-1.7-1.56c0-1.56,2.17-6.71,9.07-6.71c4.95,0,7.96,2.64,7.96,6.93c0,3.84-1.98,5.43-6.12,8.68
			c-2.17,1.7-4.09,3-5.79,4.06c-0.08,0.06-0.14,0.14-0.14,0.25c0,0.14,0.08,0.28,0.33,0.28l3.45-0.06l6.01-0.11
			c0.03,0,0.03,0,0.06,0c1.53,0,2.31,1,2.31,2.03c0,1-0.78,2.03-2.34,2.03H247.62z"/>
		<path class="st0" d="M278.63,21.06v1.47c0,1.64-1.14,2.45-2.31,2.45c-1.14,0-2.28-0.81-2.28-2.45v-1.47h-8.76
			c-1.7,0-2.25-1.09-2.25-2.23c0-0.81,0.25-1.61,0.61-2.11l10.21-14.61c0.58-0.83,1.59-1.25,2.53-1.25c1.17,0,2.25,0.7,2.25,2.14
			v14.3h2c1.17,0,1.75,0.97,1.75,1.92c0,0.92-0.56,1.84-1.67,1.84H278.63z M274.01,14.83c0-1.11,0.08-4.34,0.31-7.35
			c0-0.06,0-0.11,0-0.14c0-0.22-0.03-0.31-0.08-0.31s-0.14,0.08-0.25,0.25c-1.22,1.92-1.61,2.53-2.98,4.4c0,0-2.28,3.03-3.7,5.04
			c-0.03,0.06-0.08,0.17-0.08,0.28c0,0.19,0.08,0.36,0.39,0.36h6.4V14.83z"/>
		
			<linearGradient id="SVGID_00000148652361145053362470000003947076263053783467_" gradientUnits="userSpaceOnUse" x1="240.7346" y1="11.0743" x2="240.7346" y2="0.0136">
			<stop  offset="0" style="stop-color:#73B1E1"/>
			<stop  offset="0.0609" style="stop-color:#6AACDD"/>
			<stop  offset="0.162" style="stop-color:#4E9ED5"/>
			<stop  offset="0.2903" style="stop-color:#008BC9"/>
			<stop  offset="0.3475" style="stop-color:#0083C3"/>
			<stop  offset="1" style="stop-color:#174173"/>
		</linearGradient>
		<path style="fill:url(#SVGID_00000148652361145053362470000003947076263053783467_);" d="M240.92,6.79
			c-0.65-1.11-2.2-0.71-3.07-2.51c-0.38-0.94-0.43-1.72-0.21-2.38c0.51-1.51,2.3-2.24,3.84-1.72c1.01,0.34,1.9,1.2,2.21,2.78
			c1.19,5.85-1.87,7.91-2.08,8.12C241.6,11.07,242.93,10.22,240.92,6.79z"/>
	</g>
	<g>
		<g>
			<g>
				<path class="st0" d="M28.6,49.5c0,2.89-2.27,4.36-4.47,4.36c-2.27,0-4.53-1.47-4.53-4.36V9.57H3.51C1.19,9.57,0,8.1,0,6.57
					s1.19-3.06,3.51-3.06h46.67c2.49,0,3.79,1.53,3.79,3.06s-1.25,3-3.79,3H28.6V49.5z"/>
				<path class="st0" d="M61.11,17.95c-2.21,0-3.28-1.36-3.28-2.77c0-1.36,1.13-2.78,3.28-2.78h11.21c3.91,0,5.55,2.27,5.55,5.15
					c0,5.27-4.3,19.88-16.03,29c-0.74,0.57-1.59,0.85-2.32,0.85c-1.64,0-2.94-1.13-2.94-2.72c0-0.79,0.34-1.7,1.25-2.61
					C65.59,34.21,68.7,21.97,68.7,19.2c0-0.62-0.34-1.25-1.19-1.25H61.11z M106.99,36.64c2.61,1.42,3.68,3.4,3.68,5.32
					c0,2.66-2.21,5.1-5.04,5.1c-1.19,0-2.49-0.4-3.79-1.42c-7.31-5.55-11.67-13.59-14.22-22.6c0.11,3.62,0.23,7.19,0.23,8.04v14.95
					c0,5.49-3.74,7.76-8.55,7.76c-2.89,0-6.12-0.79-9.17-2.15c-1.36-0.62-2.04-1.76-2.04-2.83c0-1.3,0.96-2.49,2.55-2.49
					c0.28,0,0.57,0.06,0.85,0.11c2.1,0.51,3.62,0.68,4.76,0.68c2.55,0,2.94-1.08,2.94-2.83V3.74c0-2.49,2.15-3.74,4.3-3.74
					c2.21,0,4.36,1.25,4.36,3.74v7.42c0.96,3.12,1.55,5.11,3.74,9.18C93.77,24.39,101.89,33.87,106.99,36.64z"/>
				<path class="st0" d="M119.88,30.1c0-0.95-0.56-1.79-1.57-1.79h-1.91c-1.96,0-2.97-1.4-2.97-2.69c0-1.29,0.95-2.58,2.97-2.58
					h5.94c3.2,0,5.33,2.19,5.33,5.05v12.06c1.74,2.8,3.25,4.88,15.08,4.88c5.1,0,12.22-0.39,18.84-1.01c0.22,0,0.39,0,0.56,0
					c2.69,0,3.98,1.79,3.98,3.7c0,2.07-1.51,4.26-4.49,4.43c-3.53,0.17-7.63,0.22-11.55,0.22c-13.29,0-20.02-0.11-24.56-7.35
					c-4.43,7.18-6.56,8.19-8.3,8.19c-2.41,0-4.54-2.24-4.54-4.6c0-1.29,0.67-2.64,2.36-3.59c2.13-1.23,3.48-2.02,4.82-3.08V30.1z
					 M137.38,41.71c-3.59,0-6.11-2.24-6.11-6.17V21.01c0-2.97,2.13-5.1,6.17-5.1h3.36c0.28-0.56,0.5-1.12,0.73-1.85
					c0.17-0.56,0.45-1.01,0.84-1.35h-11.72c-1.68,0-2.52-1.18-2.52-2.41c0-1.12,0.84-2.3,2.52-2.3h6.67
					c-0.56-1.01-1.35-2.19-2.02-3.08c-0.45-0.62-0.67-1.23-0.67-1.85c0-1.29,1.07-2.36,2.69-2.36c2.69,0,7.4,3.31,7.4,6.34
					c0,0.34-0.06,0.67-0.17,0.95h4.82c0.06-0.28,0.17-0.62,0.34-0.95c0.73-1.18,1.74-2.64,2.41-4.21c0.73-1.74,2.02-2.41,3.36-2.41
					c1.96,0,3.93,1.57,3.93,3.48c0,1.12-0.45,2.13-2.86,4.09h6.73c1.68,0,2.52,1.18,2.52,2.3c0,1.23-0.84,2.41-2.52,2.41h-14.92
					c0.56,0.45,0.95,0.95,0.95,1.57c0,0.5-0.28,1.01-0.9,1.57l-0.11,0.06h8.02c4.04,0,6.11,2.07,6.11,5.21v14.41
					c0,3.93-1.96,6.17-6.11,6.17H137.38z M155.15,21.29c0-0.73-0.45-1.35-1.91-1.35h-12.79c-1.23,0-1.85,0.5-1.85,1.29v1.57h16.54
					V21.29z M155.15,26.85h-16.54v3.14h16.54V26.85z M155.15,33.97h-16.54v1.85c0,0.84,0.5,1.4,1.85,1.4h13.07
					c1.18,0,1.63-0.5,1.63-1.4V33.97z"/>
			</g>
			
				<linearGradient id="SVGID_00000014635126972762483100000015484664726954738092_" gradientUnits="userSpaceOnUse" x1="28.6971" y1="26.1208" x2="49.3283" y2="26.1208">
				<stop  offset="0" style="stop-color:#73B1E1"/>
				<stop  offset="0.0609" style="stop-color:#6AACDD"/>
				<stop  offset="0.162" style="stop-color:#4E9ED5"/>
				<stop  offset="0.2903" style="stop-color:#008BC9"/>
				<stop  offset="0.3475" style="stop-color:#0083C3"/>
				<stop  offset="1" style="stop-color:#174173"/>
			</linearGradient>
			<path style="fill:url(#SVGID_00000014635126972762483100000015484664726954738092_);" d="M28.7,19.24
				c0.45-0.23,8.54-1.44,17.35,3.68c2.38,1.36,3.28,3.28,3.28,5.1c0,2.78-2.15,5.27-4.87,5.27c-1.19,0-2.44-0.51-3.74-1.64
				c-2.43-2.37-3.35-4.74-4.78-6.39C31.49,20.13,28.7,19.24,28.7,19.24z"/>
			
				<linearGradient id="SVGID_00000045611929681359428010000017436650612096333244_" gradientUnits="userSpaceOnUse" x1="92.3703" y1="15.3993" x2="109.4175" y2="15.3993">
				<stop  offset="0" style="stop-color:#73B1E1"/>
				<stop  offset="0.0609" style="stop-color:#6AACDD"/>
				<stop  offset="0.162" style="stop-color:#4E9ED5"/>
				<stop  offset="0.2903" style="stop-color:#008BC9"/>
				<stop  offset="0.3475" style="stop-color:#0083C3"/>
				<stop  offset="1" style="stop-color:#174173"/>
			</linearGradient>
			<path style="fill:url(#SVGID_00000045611929681359428010000017436650612096333244_);" d="M92.37,21.52
				c2.78-2.61,5.89-6.51,8.27-9.8c1.25-1.76,2.78-2.44,4.19-2.44c2.44,0,4.59,2.1,4.59,4.47c0,1.13-0.51,2.38-1.7,3.45
				C104.38,20.21,92.37,21.52,92.37,21.52z"/>
			
				<linearGradient id="SVGID_00000145765218657536805180000008299126906823136690_" gradientUnits="userSpaceOnUse" x1="121.2339" y1="20.4635" x2="121.2339" y2="6.5845">
				<stop  offset="0" style="stop-color:#73B1E1"/>
				<stop  offset="0.0609" style="stop-color:#6AACDD"/>
				<stop  offset="0.162" style="stop-color:#4E9ED5"/>
				<stop  offset="0.2903" style="stop-color:#008BC9"/>
				<stop  offset="0.3475" style="stop-color:#0083C3"/>
				<stop  offset="1" style="stop-color:#174173"/>
			</linearGradient>
			<path style="fill:url(#SVGID_00000145765218657536805180000008299126906823136690_);" d="M122.78,9.11
				c0.62,1.29,4.93,11.36,4.93,11.36s-12.95-5.02-12.95-9.39c0-2.52,2.19-4.49,4.43-4.49C120.54,6.58,121.88,7.31,122.78,9.11z"/>
		</g>
		<path class="st0" d="M218.3,45.07c-1.7-0.23-3.86-0.51-5.98-1.04c-3.83,0.99-8.18,1.21-8.97,1.25c-0.01,0-0.02,0-0.03,0
			c-0.31,0-0.59-0.18-0.73-0.46c-0.14-0.29-0.09-0.64,0.13-0.88c0.12-0.13,1.42-1.57,2.93-3.23c-1.4-1.31-2.12-2.76-2.64-4.28h6.54
			c0.44-0.47,0.77-0.83,0.93-0.99c0,0,0.01-0.01,0.01-0.01c1.71-1.68,3.46-1.57,4.62-1.35c1.24,0.24,2.3,1,2.91,2.07
			c0.05,0.09,0.09,0.18,0.13,0.27c1.7-0.06,2.55-1.2,2.55-2.35c0-1.18-0.9-2.36-2.69-2.36h-7.4v-5.5h5.05
			c1.74,0,2.64-1.18,2.64-2.36c0-1.18-0.9-2.36-2.64-2.36h-5.05v-1.63c0-2.36-1.96-3.59-3.93-3.59c-1.91,0-3.81,1.18-3.81,3.59v1.63
			h-6.79v-1.63c0-2.36-1.96-3.53-3.87-3.53c-1.96,0-3.87,1.18-3.87,3.53v1.63h-3.76c-1.68,0-2.58,1.18-2.58,2.36
			c0,1.18,0.9,2.36,2.58,2.36h3.76v5.5h-6.22c-0.62,0-1.12,0.22-1.51,0.56c0.56-3.93,0.79-8.3,0.79-13.01v-3.36h31.74
			c2.86,0,5.55-1.35,5.55-4.82V6.94c0-3.2-2.47-4.82-5.55-4.82h-33.81c-3.76,0-6.28,2.36-6.28,5.78v10.82
			c0,13.74-0.95,23.22-3.93,29.94c-0.28,0.62-0.39,1.18-0.39,1.68c0,1.51,1.12,2.47,2.36,2.47c1.01,0,2.07-0.56,2.86-1.74
			c2.97-4.37,4.99-9.59,6.17-15.7c0.39,0.62,1.01,1.07,2.02,1.07h3.76v9.87c-1.23,0.11-2.52,0.17-3.93,0.28
			c-2.36,0.17-3.42,1.85-3.42,3.53c0,1.79,1.23,3.59,3.53,3.59c0.9,0,6-0.67,18.28-4.49c1.35-0.39,1.96-1.46,1.96-2.41
			c0-1.18-0.9-2.3-2.41-2.3c-0.17,0-0.34,0-0.5,0.06c-2.13,0.34-3.98,0.62-5.66,0.84v-8.97h3.59c4.37,15.93,19.68,16.71,20.02,16.71
			c2.92,0,4.65-2.24,4.65-4.37C222,47.03,220.87,45.41,218.3,45.07z M181.4,8.29c0-0.62,0.62-1.29,1.46-1.29h26.24
			c0.84,0,1.51,0.56,1.51,1.23v1.91c0,0.78-0.45,1.23-1.51,1.23h-27.7V8.29z M196.09,31.72v-5.5h6.79v5.5H196.09z"/>
		
			<linearGradient id="SVGID_00000039115186080194058190000011053383986832114317_" gradientUnits="userSpaceOnUse" x1="1221.1217" y1="208.7204" x2="1221.1217" y2="195.8159" gradientTransform="matrix(-0.9458 -0.3247 -0.3247 0.9458 1431.7115 245.5631)">
			<stop  offset="0" style="stop-color:#73B1E1"/>
			<stop  offset="0.0609" style="stop-color:#6AACDD"/>
			<stop  offset="0.162" style="stop-color:#4E9ED5"/>
			<stop  offset="0.2903" style="stop-color:#008BC9"/>
			<stop  offset="0.3475" style="stop-color:#0083C3"/>
			<stop  offset="1" style="stop-color:#174173"/>
		</linearGradient>
		<path style="fill:url(#SVGID_00000039115186080194058190000011053383986832114317_);" d="M211.05,36
			c-0.93,0.95-7.74,8.47-7.74,8.47s12.8-0.52,14.18-4.34c0.96-2.66-0.41-4.86-2.53-5.27C213.74,34.63,212.38,34.7,211.05,36z"/>
	</g>
	<g>
		<g>
			<g>
				<path class="st0" d="M28.6,49.5c0,2.89-2.27,4.36-4.47,4.36c-2.27,0-4.53-1.47-4.53-4.36V9.57H3.51C1.19,9.57,0,8.1,0,6.57
					s1.19-3.06,3.51-3.06h46.67c2.49,0,3.79,1.53,3.79,3.06s-1.25,3-3.79,3H28.6V49.5z"/>
				<path class="st0" d="M61.11,17.95c-2.21,0-3.28-1.36-3.28-2.77c0-1.36,1.13-2.78,3.28-2.78h11.21c3.91,0,5.55,2.27,5.55,5.15
					c0,5.27-4.3,19.88-16.03,29c-0.74,0.57-1.59,0.85-2.32,0.85c-1.64,0-2.94-1.13-2.94-2.72c0-0.79,0.34-1.7,1.25-2.61
					C65.59,34.21,68.7,21.97,68.7,19.2c0-0.62-0.34-1.25-1.19-1.25H61.11z M106.99,36.64c2.61,1.42,3.68,3.4,3.68,5.32
					c0,2.66-2.21,5.1-5.04,5.1c-1.19,0-2.49-0.4-3.79-1.42c-7.31-5.55-11.67-13.59-14.22-22.6c0.11,3.62,0.23,7.19,0.23,8.04v14.95
					c0,5.49-3.74,7.76-8.55,7.76c-2.89,0-6.12-0.79-9.17-2.15c-1.36-0.62-2.04-1.76-2.04-2.83c0-1.3,0.96-2.49,2.55-2.49
					c0.28,0,0.57,0.06,0.85,0.11c2.1,0.51,3.62,0.68,4.76,0.68c2.55,0,2.94-1.08,2.94-2.83V3.74c0-2.49,2.15-3.74,4.3-3.74
					c2.21,0,4.36,1.25,4.36,3.74v7.42c0.96,3.12,1.55,5.11,3.74,9.18C93.77,24.39,101.89,33.87,106.99,36.64z"/>
				<path class="st0" d="M119.88,30.1c0-0.95-0.56-1.79-1.57-1.79h-1.91c-1.96,0-2.97-1.4-2.97-2.69c0-1.29,0.95-2.58,2.97-2.58
					h5.94c3.2,0,5.33,2.19,5.33,5.05v12.06c1.74,2.8,3.25,4.88,15.08,4.88c5.1,0,12.22-0.39,18.84-1.01c0.22,0,0.39,0,0.56,0
					c2.69,0,3.98,1.79,3.98,3.7c0,2.07-1.51,4.26-4.49,4.43c-3.53,0.17-7.63,0.22-11.55,0.22c-13.29,0-20.02-0.11-24.56-7.35
					c-4.43,7.18-6.56,8.19-8.3,8.19c-2.41,0-4.54-2.24-4.54-4.6c0-1.29,0.67-2.64,2.36-3.59c2.13-1.23,3.48-2.02,4.82-3.08V30.1z
					 M137.38,41.71c-3.59,0-6.11-2.24-6.11-6.17V21.01c0-2.97,2.13-5.1,6.17-5.1h3.36c0.28-0.56,0.5-1.12,0.73-1.85
					c0.17-0.56,0.45-1.01,0.84-1.35h-11.72c-1.68,0-2.52-1.18-2.52-2.41c0-1.12,0.84-2.3,2.52-2.3h6.67
					c-0.56-1.01-1.35-2.19-2.02-3.08c-0.45-0.62-0.67-1.23-0.67-1.85c0-1.29,1.07-2.36,2.69-2.36c2.69,0,7.4,3.31,7.4,6.34
					c0,0.34-0.06,0.67-0.17,0.95h4.82c0.06-0.28,0.17-0.62,0.34-0.95c0.73-1.18,1.74-2.64,2.41-4.21c0.73-1.74,2.02-2.41,3.36-2.41
					c1.96,0,3.93,1.57,3.93,3.48c0,1.12-0.45,2.13-2.86,4.09h6.73c1.68,0,2.52,1.18,2.52,2.3c0,1.23-0.84,2.41-2.52,2.41h-14.92
					c0.56,0.45,0.95,0.95,0.95,1.57c0,0.5-0.28,1.01-0.9,1.57l-0.11,0.06h8.02c4.04,0,6.11,2.07,6.11,5.21v14.41
					c0,3.93-1.96,6.17-6.11,6.17H137.38z M155.15,21.29c0-0.73-0.45-1.35-1.91-1.35h-12.79c-1.23,0-1.85,0.5-1.85,1.29v1.57h16.54
					V21.29z M155.15,26.85h-16.54v3.14h16.54V26.85z M155.15,33.97h-16.54v1.85c0,0.84,0.5,1.4,1.85,1.4h13.07
					c1.18,0,1.63-0.5,1.63-1.4V33.97z"/>
			</g>
			
				<linearGradient id="SVGID_00000036242427427517314430000013687105566284851093_" gradientUnits="userSpaceOnUse" x1="28.6971" y1="26.1208" x2="49.3283" y2="26.1208">
				<stop  offset="0" style="stop-color:#73B1E1"/>
				<stop  offset="0.0609" style="stop-color:#6AACDD"/>
				<stop  offset="0.162" style="stop-color:#4E9ED5"/>
				<stop  offset="0.2903" style="stop-color:#008BC9"/>
				<stop  offset="0.3475" style="stop-color:#0083C3"/>
				<stop  offset="1" style="stop-color:#174173"/>
			</linearGradient>
			<path style="fill:url(#SVGID_00000036242427427517314430000013687105566284851093_);" d="M28.7,19.24
				c0.45-0.23,8.54-1.44,17.35,3.68c2.38,1.36,3.28,3.28,3.28,5.1c0,2.78-2.15,5.27-4.87,5.27c-1.19,0-2.44-0.51-3.74-1.64
				c-2.43-2.37-3.35-4.74-4.78-6.39C31.49,20.13,28.7,19.24,28.7,19.24z"/>
			
				<linearGradient id="SVGID_00000032620390514819862100000013915723783085896855_" gradientUnits="userSpaceOnUse" x1="92.3703" y1="15.3993" x2="109.4175" y2="15.3993">
				<stop  offset="0" style="stop-color:#73B1E1"/>
				<stop  offset="0.0609" style="stop-color:#6AACDD"/>
				<stop  offset="0.162" style="stop-color:#4E9ED5"/>
				<stop  offset="0.2903" style="stop-color:#008BC9"/>
				<stop  offset="0.3475" style="stop-color:#0083C3"/>
				<stop  offset="1" style="stop-color:#174173"/>
			</linearGradient>
			<path style="fill:url(#SVGID_00000032620390514819862100000013915723783085896855_);" d="M92.37,21.52
				c2.78-2.61,5.89-6.51,8.27-9.8c1.25-1.76,2.78-2.44,4.19-2.44c2.44,0,4.59,2.1,4.59,4.47c0,1.13-0.51,2.38-1.7,3.45
				C104.38,20.21,92.37,21.52,92.37,21.52z"/>
			
				<linearGradient id="SVGID_00000042002738039742776230000015681097218813046939_" gradientUnits="userSpaceOnUse" x1="121.2339" y1="20.4635" x2="121.2339" y2="6.5845">
				<stop  offset="0" style="stop-color:#73B1E1"/>
				<stop  offset="0.0609" style="stop-color:#6AACDD"/>
				<stop  offset="0.162" style="stop-color:#4E9ED5"/>
				<stop  offset="0.2903" style="stop-color:#008BC9"/>
				<stop  offset="0.3475" style="stop-color:#0083C3"/>
				<stop  offset="1" style="stop-color:#174173"/>
			</linearGradient>
			<path style="fill:url(#SVGID_00000042002738039742776230000015681097218813046939_);" d="M122.78,9.11
				c0.62,1.29,4.93,11.36,4.93,11.36s-12.95-5.02-12.95-9.39c0-2.52,2.19-4.49,4.43-4.49C120.54,6.58,121.88,7.31,122.78,9.11z"/>
		</g>
		<path class="st0" d="M218.3,45.07c-1.7-0.23-3.86-0.51-5.98-1.04c-3.83,0.99-8.18,1.21-8.97,1.25c-0.01,0-0.02,0-0.03,0
			c-0.31,0-0.59-0.18-0.73-0.46c-0.14-0.29-0.09-0.64,0.13-0.88c0.12-0.13,1.42-1.57,2.93-3.23c-1.4-1.31-2.12-2.76-2.64-4.28h6.54
			c0.44-0.47,0.77-0.83,0.93-0.99c0,0,0.01-0.01,0.01-0.01c1.71-1.68,3.46-1.57,4.62-1.35c1.24,0.24,2.3,1,2.91,2.07
			c0.05,0.09,0.09,0.18,0.13,0.27c1.7-0.06,2.55-1.2,2.55-2.35c0-1.18-0.9-2.36-2.69-2.36h-7.4v-5.5h5.05
			c1.74,0,2.64-1.18,2.64-2.36c0-1.18-0.9-2.36-2.64-2.36h-5.05v-1.63c0-2.36-1.96-3.59-3.93-3.59c-1.91,0-3.81,1.18-3.81,3.59v1.63
			h-6.79v-1.63c0-2.36-1.96-3.53-3.87-3.53c-1.96,0-3.87,1.18-3.87,3.53v1.63h-3.76c-1.68,0-2.58,1.18-2.58,2.36
			c0,1.18,0.9,2.36,2.58,2.36h3.76v5.5h-6.22c-0.62,0-1.12,0.22-1.51,0.56c0.56-3.93,0.79-8.3,0.79-13.01v-3.36h31.74
			c2.86,0,5.55-1.35,5.55-4.82V6.94c0-3.2-2.47-4.82-5.55-4.82h-33.81c-3.76,0-6.28,2.36-6.28,5.78v10.82
			c0,13.74-0.95,23.22-3.93,29.94c-0.28,0.62-0.39,1.18-0.39,1.68c0,1.51,1.12,2.47,2.36,2.47c1.01,0,2.07-0.56,2.86-1.74
			c2.97-4.37,4.99-9.59,6.17-15.7c0.39,0.62,1.01,1.07,2.02,1.07h3.76v9.87c-1.23,0.11-2.52,0.17-3.93,0.28
			c-2.36,0.17-3.42,1.85-3.42,3.53c0,1.79,1.23,3.59,3.53,3.59c0.9,0,6-0.67,18.28-4.49c1.35-0.39,1.96-1.46,1.96-2.41
			c0-1.18-0.9-2.3-2.41-2.3c-0.17,0-0.34,0-0.5,0.06c-2.13,0.34-3.98,0.62-5.66,0.84v-8.97h3.59c4.37,15.93,19.68,16.71,20.02,16.71
			c2.92,0,4.65-2.24,4.65-4.37C222,47.03,220.87,45.41,218.3,45.07z M181.4,8.29c0-0.62,0.62-1.29,1.46-1.29h26.24
			c0.84,0,1.51,0.56,1.51,1.23v1.91c0,0.78-0.45,1.23-1.51,1.23h-27.7V8.29z M196.09,31.72v-5.5h6.79v5.5H196.09z"/>
		
			<linearGradient id="SVGID_00000052067222266401917060000009661790755859803016_" gradientUnits="userSpaceOnUse" x1="1221.1217" y1="208.7204" x2="1221.1217" y2="195.8159" gradientTransform="matrix(-0.9458 -0.3247 -0.3247 0.9458 1431.7115 245.5631)">
			<stop  offset="0" style="stop-color:#73B1E1"/>
			<stop  offset="0.0609" style="stop-color:#6AACDD"/>
			<stop  offset="0.162" style="stop-color:#4E9ED5"/>
			<stop  offset="0.2903" style="stop-color:#008BC9"/>
			<stop  offset="0.3475" style="stop-color:#0083C3"/>
			<stop  offset="1" style="stop-color:#174173"/>
		</linearGradient>
		<path style="fill:url(#SVGID_00000052067222266401917060000009661790755859803016_);" d="M211.05,36
			c-0.93,0.95-7.74,8.47-7.74,8.47s12.8-0.52,14.18-4.34c0.96-2.66-0.41-4.86-2.53-5.27C213.74,34.63,212.38,34.7,211.05,36z"/>
	</g>
</g>
</svg>
