<?xml version="1.0" encoding="utf-8"?>
<!-- Generator: Adobe Illustrator 28.0.0, SVG Export Plug-In . SVG Version: 6.00 Build 0)  -->
<svg version="1.1" id="Layer_1" xmlns="http://www.w3.org/2000/svg" xmlns:xlink="http://www.w3.org/1999/xlink" x="0px" y="0px"
	 viewBox="0 0 248.4 102.23" style="enable-background:new 0 0 248.4 102.23;" xml:space="preserve">
<style type="text/css">
	
		.st0{clip-path:url(#SVGID_00000178184674464433998390000017073488016941417639_);fill:url(#SVGID_00000155866755847838248950000001599121083330379669_);}
	
		.st1{clip-path:url(#SVGID_00000038387549149389354150000014664385351093751985_);fill:url(#SVGID_00000073699744111546029020000009412230309700938135_);}
	
		.st2{clip-path:url(#SVGID_00000062150177107085618790000013107701484043236499_);fill:url(#SVGID_00000165196395602316095510000005359731929264422062_);}
	
		.st3{clip-path:url(#SVGID_00000039829923638522265470000007726770404070143648_);fill:url(#SVGID_00000132767664004844288670000003800923184642012330_);}
	.st4{fill:#154A94;}
	
		.st5{clip-path:url(#SVGID_00000116218863139143426510000009341441986765048242_);fill:url(#SVGID_00000136402824697220157600000009822597782012028576_);}
</style>
<g>
	<g>
		<defs>
			<path id="SVGID_1_" d="M61.83,83.54c0,0,0.04-0.02,0.09-0.08C61.88,83.5,61.85,83.52,61.83,83.54 M56.8,71.9
				c-0.28,0.84-0.22,1.83,0.27,3.02c1.09,2.28,3.07,1.78,3.89,3.18c2.17,3.71,1.27,5.05,0.96,5.36c0.64-0.53,3.97-3.26,2.55-10.21
				c-0.39-2-1.53-3.09-2.81-3.52c-0.42-0.14-0.86-0.21-1.3-0.21C58.81,69.51,57.31,70.4,56.8,71.9"/>
		</defs>
		<clipPath id="SVGID_00000142147034044408425850000017944799341226325417_">
			<use xlink:href="#SVGID_1_"  style="overflow:visible;"/>
		</clipPath>
		
			<linearGradient id="SVGID_00000043439400997097377230000017660852120499480750_" gradientUnits="userSpaceOnUse" x1="-486.523" y1="461.8914" x2="-484.8229" y2="461.8914" gradientTransform="matrix(0 -8.2504 -8.2504 0 3871.9995 -3930.4724)">
			<stop  offset="0" style="stop-color:#73B0E0"/>
			<stop  offset="0.0716" style="stop-color:#6BAADC"/>
			<stop  offset="0.1905" style="stop-color:#529AD2"/>
			<stop  offset="0.3412" style="stop-color:#1683C3"/>
			<stop  offset="0.3475" style="stop-color:#1082C2"/>
			<stop  offset="0.4219" style="stop-color:#1678B6"/>
			<stop  offset="1" style="stop-color:#203E77"/>
		</linearGradient>
		
			<rect x="56.52" y="69.51" style="clip-path:url(#SVGID_00000142147034044408425850000017944799341226325417_);fill:url(#SVGID_00000043439400997097377230000017660852120499480750_);" width="9.37" height="14.03"/>
	</g>
	<g>
		<defs>
			<path id="SVGID_00000138573441306290048070000016379061015058799236_" d="M32.11,21.53c0,0,3.12,0.99,8.1,6.73
				c1.6,1.85,2.63,4.5,5.35,7.15c1.46,1.27,2.85,1.84,4.18,1.84c3.04,0,5.45-2.79,5.45-5.89c0-2.03-1.01-4.18-3.68-5.71
				c-6.35-3.69-12.36-4.44-15.97-4.44C33.56,21.21,32.29,21.44,32.11,21.53"/>
		</defs>
		<clipPath id="SVGID_00000106116130283324609730000016963741884387617699_">
			<use xlink:href="#SVGID_00000138573441306290048070000016379061015058799236_"  style="overflow:visible;"/>
		</clipPath>
		
			<linearGradient id="SVGID_00000005976338976397302810000013510246384608809111_" gradientUnits="userSpaceOnUse" x1="-464.1871" y1="464.1032" x2="-462.487" y2="464.1032" gradientTransform="matrix(13.5793 0 0 -13.5793 6335.4619 6331.439)">
			<stop  offset="0" style="stop-color:#73B0E0"/>
			<stop  offset="0.0716" style="stop-color:#6BAADC"/>
			<stop  offset="0.1905" style="stop-color:#529AD2"/>
			<stop  offset="0.3412" style="stop-color:#1683C3"/>
			<stop  offset="0.3475" style="stop-color:#1082C2"/>
			<stop  offset="0.4219" style="stop-color:#1678B6"/>
			<stop  offset="1" style="stop-color:#203E77"/>
		</linearGradient>
		
			<rect x="32.11" y="21.21" style="clip-path:url(#SVGID_00000106116130283324609730000016963741884387617699_);fill:url(#SVGID_00000005976338976397302810000013510246384608809111_);" width="23.09" height="16.04"/>
	</g>
	<g>
		<defs>
			<path id="SVGID_00000115497104099754825480000006290312413419739020_" d="M112.61,13.11c-2.66,3.68-6.15,8.05-9.25,10.96
				c0,0,13.44-1.46,17.18-4.82c1.33-1.2,1.9-2.6,1.9-3.86c0-2.66-2.41-5.01-5.13-5.01C115.71,10.39,114,11.15,112.61,13.11"/>
		</defs>
		<clipPath id="SVGID_00000098214245093509588260000003630220256025420700_">
			<use xlink:href="#SVGID_00000115497104099754825480000006290312413419739020_"  style="overflow:visible;"/>
		</clipPath>
		
			<linearGradient id="SVGID_00000163069646322091470460000017173404463608676528_" gradientUnits="userSpaceOnUse" x1="-460.3924" y1="462.7535" x2="-458.6923" y2="462.7535" gradientTransform="matrix(11.2203 0 0 -11.2203 5269.1108 5209.478)">
			<stop  offset="0" style="stop-color:#73B0E0"/>
			<stop  offset="0.0716" style="stop-color:#6BAADC"/>
			<stop  offset="0.1905" style="stop-color:#529AD2"/>
			<stop  offset="0.3412" style="stop-color:#1683C3"/>
			<stop  offset="0.3475" style="stop-color:#1082C2"/>
			<stop  offset="0.4219" style="stop-color:#1678B6"/>
			<stop  offset="1" style="stop-color:#203E77"/>
		</linearGradient>
		
			<rect x="103.36" y="10.39" style="clip-path:url(#SVGID_00000098214245093509588260000003630220256025420700_);fill:url(#SVGID_00000163069646322091470460000017173404463608676528_);" width="19.08" height="13.69"/>
	</g>
	<g>
		<defs>
			<path id="SVGID_00000106126500204559244680000001403542921915546805_" d="M128.41,12.39c0,4.89,14.49,10.51,14.49,10.51
				s-4.82-11.26-5.51-12.7c-1-2.01-2.51-2.82-4.02-2.82C130.85,7.37,128.41,9.56,128.41,12.39"/>
		</defs>
		<clipPath id="SVGID_00000023999579160023505550000008562580546781658795_">
			<use xlink:href="#SVGID_00000106126500204559244680000001403542921915546805_"  style="overflow:visible;"/>
		</clipPath>
		
			<linearGradient id="SVGID_00000064342124014890453530000016204062531967472540_" gradientUnits="userSpaceOnUse" x1="-482.1699" y1="459.6053" x2="-480.4701" y2="459.6053" gradientTransform="matrix(0 -9.1351 -9.1351 0 4334.1704 -4381.752)">
			<stop  offset="0" style="stop-color:#73B0E0"/>
			<stop  offset="0.0716" style="stop-color:#6BAADC"/>
			<stop  offset="0.1905" style="stop-color:#529AD2"/>
			<stop  offset="0.3412" style="stop-color:#1683C3"/>
			<stop  offset="0.3475" style="stop-color:#1082C2"/>
			<stop  offset="0.4219" style="stop-color:#1678B6"/>
			<stop  offset="1" style="stop-color:#203E77"/>
		</linearGradient>
		
			<rect x="128.41" y="7.37" style="clip-path:url(#SVGID_00000023999579160023505550000008562580546781658795_);fill:url(#SVGID_00000064342124014890453530000016204062531967472540_);" width="14.49" height="15.53"/>
	</g>
	<g>
		<g>
			<path class="st4" d="M69.46,100.82c-1.55,0-2.54-1.09-2.54-2.4c0-0.78,0.35-1.59,1.09-2.33c1.02-0.99,6.24-5.61,9.46-9.21
				c2.47-2.75,4.52-5.22,4.52-8.33c0-2.61-1.45-4.09-4.23-4.09c-2.82,0-4.87,1.55-6.1,4.9c-0.32,0.92-1.23,1.38-2.12,1.38
				c-1.06,0-2.15-0.67-2.15-1.98c0-1.98,2.75-8.5,11.5-8.5c6.28,0,10.09,3.35,10.09,8.79c0,4.87-2.51,6.88-7.76,11.01
				c-2.75,2.15-5.19,3.81-7.34,5.15c-0.11,0.07-0.18,0.18-0.18,0.32c0,0.18,0.11,0.35,0.42,0.35l4.37-0.07l7.62-0.14h0.07
				c1.94,0,2.93,1.27,2.93,2.58c0,1.27-0.99,2.58-2.96,2.58H69.46z"/>
			<path class="st4" d="M108.78,96.2v1.87c0,2.08-1.45,3.1-2.93,3.1c-1.45,0-2.89-1.02-2.89-3.1V96.2H91.84
				c-2.15,0-2.86-1.38-2.86-2.82c0-1.02,0.32-2.05,0.78-2.68l12.95-18.52c0.74-1.06,2.01-1.59,3.21-1.59c1.48,0,2.86,0.88,2.86,2.72
				v18.13h2.54c1.48,0,2.22,1.24,2.22,2.43c0,1.16-0.71,2.33-2.12,2.33H108.78z M102.92,88.3c0-1.41,0.11-5.5,0.39-9.31v-0.18
				c0-0.28-0.04-0.39-0.11-0.39c-0.07,0-0.18,0.11-0.32,0.32c-1.55,2.43-2.05,3.21-3.77,5.57c0,0-2.89,3.85-4.69,6.39
				c-0.03,0.07-0.11,0.21-0.11,0.35c0,0.25,0.11,0.46,0.49,0.46h8.11V88.3z"/>
			<path class="st4" d="M137.07,91.44c3,2.79,7.16,3.81,10.58,4.52c1.62,0.35,2.33,1.48,2.33,2.61c0,1.38-1.06,2.75-2.93,2.75
				c-1.52,0-7.76-2.01-11.93-7.34c0.04,0.81,0.04,1.73,0.04,2.79v2.86c0,1.73-1.24,2.61-2.47,2.61c-1.27,0-2.5-0.88-2.5-2.61v-2.86
				c0-0.74,0.07-1.48,0.1-2.19c-4.44,5.12-11.96,7.16-12.63,7.16c-1.09,0-1.76-0.74-1.76-1.55c0-0.67,0.42-1.38,1.41-1.8
				c3.53-1.55,6.7-3.63,9.42-6.95h-3.95c-2.26,0-3.92-1.41-3.92-3.6V80.5c0-2.12,1.52-3.6,3.92-3.6h7.41v-2.08h-11.61
				c-1.24,0-1.83-0.81-1.83-1.62c0-0.81,0.6-1.62,1.83-1.62h11.61v-0.81c0-1.62,1.23-2.4,2.5-2.4c1.23,0,2.47,0.78,2.47,2.4v0.81
				h12.13c1.24,0,1.84,0.81,1.84,1.62c0,0.81-0.6,1.62-1.84,1.62h-12.13v2.08h7.27c2.54,0,4.23,1.48,4.23,3.6v7.34
				c0,2.33-1.59,3.6-3.88,3.6H137.07z M130.19,79.8h-5.29c-0.6,0-1.02,0.42-1.02,0.88v2.01h6.32V79.8z M130.19,85.4h-6.32v2.33
				c0,0.42,0.42,0.95,1.06,0.95h5.26V85.4z M141.73,80.68c0-0.42-0.42-0.88-1.03-0.88h-5.54v2.89h6.56V80.68z M141.73,85.4h-6.56
				v3.28h5.5c0.64,0,1.06-0.49,1.06-0.95V85.4z"/>
			<path class="st4" d="M153.29,100.68c-1.13,0-1.87-0.85-1.87-1.76c0-0.6,0.32-1.23,1.06-1.73c1.98-1.27,3.78-3.1,5.57-5.47
				c0.64-0.85,1.45-1.16,2.22-1.16c1.52,0,2.89,1.23,2.89,2.79c0,0.71-0.28,1.45-0.95,2.15
				C160.14,97.68,154.77,100.68,153.29,100.68 M153.51,75.63c-1.31,0-1.94-0.88-1.94-1.8c0-0.92,0.67-1.83,1.94-1.83h11.54v-0.88
				c0-1.73,1.59-2.65,3.14-2.65c1.55,0,3.07,0.88,3.07,2.65V72h11.71c1.2,0,1.76,0.92,1.76,1.8c0,0.92-0.56,1.83-1.76,1.83H153.51z
				 M171,89.57v7.55c0,3.32-1.98,5.08-5.4,5.08c-1.45,0-3.18-0.32-5.12-0.99c-0.81-0.28-1.2-0.95-1.2-1.62
				c0-0.85,0.67-1.73,1.8-1.73c0.11,0,0.21,0.04,0.32,0.04c0.78,0.11,1.45,0.18,1.98,0.18c1.84,0,2.3-0.64,2.3-1.69v-6.81h-6.49
				c-2.33,0-4.13-1.06-4.13-3.42v-4.97c0-2.33,1.8-3.32,4.13-3.32h18.13c2.29,0,4.06,0.85,4.06,3.28v5.05c0,2.36-1.8,3.39-4.06,3.39
				H171z M176.05,82.23c0-0.56-0.35-1.06-1.34-1.06h-12.98c-0.95,0-1.34,0.49-1.34,1.06v2.96c0,0.67,0.42,1.06,1.34,1.06h12.98
				c0.88,0,1.34-0.39,1.34-1.06V82.23z M179.05,99.23c-1.66-1.87-2.89-3.18-5.19-5.15c-0.53-0.46-0.78-1.02-0.78-1.55
				c0-0.92,0.74-1.73,1.98-1.73c1.45,0,5.72,2.22,7.87,4.06c0.99,0.85,1.38,1.8,1.38,2.68c0,1.59-1.27,2.96-2.82,2.96
				C180.71,100.51,179.82,100.12,179.05,99.23"/>
		</g>
		<g>
			<path class="st4" d="M32,55.39c0,3.23-2.53,4.88-5,4.88c-2.54,0-5.07-1.65-5.07-4.88V10.71h-18C1.33,10.71,0,9.06,0,7.35
				c0-1.71,1.33-3.42,3.93-3.42h52.22c2.79,0,4.24,1.71,4.24,3.42c0,1.71-1.39,3.36-4.24,3.36H32V55.39z"/>
			<path class="st4" d="M68.38,20.09c-2.47,0-3.68-1.52-3.68-3.11c0-1.52,1.27-3.11,3.68-3.11h12.55c4.37,0,6.21,2.54,6.21,5.77
				c0,5.89-4.82,22.24-17.93,32.45c-0.82,0.63-1.77,0.95-2.6,0.95c-1.84,0-3.3-1.27-3.3-3.04c0-0.89,0.38-1.9,1.4-2.91
				c8.68-8.81,12.17-22.5,12.17-25.6c0-0.7-0.38-1.39-1.33-1.39H68.38z M119.71,41c2.92,1.58,4.12,3.8,4.12,5.96
				c0,2.98-2.47,5.7-5.64,5.7c-1.33,0-2.79-0.44-4.25-1.58c-8.17-6.21-13.05-15.21-15.91-25.28c0.13,4.05,0.25,8.05,0.25,9v16.73
				c0,6.15-4.18,8.68-9.57,8.68c-3.23,0-6.84-0.89-10.27-2.41c-1.52-0.7-2.28-1.96-2.28-3.17c0-1.46,1.08-2.79,2.85-2.79
				c0.32,0,0.63,0.06,0.95,0.13c2.35,0.57,4.06,0.76,5.32,0.76c2.85,0,3.29-1.2,3.29-3.17V4.18C88.6,1.39,91,0,93.41,0
				c2.47,0,4.88,1.39,4.88,4.18v8.3c1.08,3.49,1.74,5.72,4.18,10.27C104.92,27.3,114.01,37.89,119.71,41"/>
			<path class="st4" d="M134.14,33.68c0-1.07-0.63-2.01-1.76-2.01h-2.13c-2.2,0-3.33-1.57-3.33-3.01s1.07-2.89,3.33-2.89h6.65
				c3.58,0,5.96,2.45,5.96,5.65v13.49c1.95,3.14,3.64,5.46,16.88,5.46c5.71,0,13.68-0.44,21.08-1.13h0.63
				c3.01,0,4.45,2.01,4.45,4.14c0,2.32-1.69,4.77-5.02,4.96c-3.95,0.19-8.53,0.25-12.93,0.25c-14.87,0-22.4-0.13-27.48-8.22
				c-4.96,8.03-7.34,9.16-9.29,9.16c-2.7,0-5.08-2.51-5.08-5.15c0-1.44,0.75-2.95,2.64-4.02c2.39-1.38,3.89-2.26,5.4-3.45V33.68z
				 M153.72,46.66c-4.02,0-6.84-2.51-6.84-6.9V23.51c0-3.33,2.39-5.71,6.9-5.71h3.77c0.31-0.63,0.56-1.26,0.81-2.07
				c0.19-0.63,0.5-1.13,0.94-1.51h-13.11c-1.88,0-2.82-1.32-2.82-2.7c0-1.25,0.94-2.57,2.82-2.57h7.47
				c-0.63-1.13-1.51-2.45-2.26-3.45c-0.5-0.69-0.75-1.38-0.75-2.07c0-1.44,1.19-2.63,3.01-2.63c3.01,0,8.28,3.7,8.28,7.09
				c0,0.38-0.06,0.75-0.19,1.07h5.4c0.06-0.31,0.19-0.69,0.38-1.07c0.82-1.32,1.94-2.95,2.7-4.71c0.81-1.94,2.26-2.7,3.76-2.7
				c2.2,0,4.39,1.76,4.39,3.89c0,1.26-0.5,2.39-3.2,4.58h7.53c1.88,0,2.82,1.32,2.82,2.57c0,1.38-0.94,2.7-2.82,2.7h-16.69
				c0.63,0.5,1.07,1.07,1.07,1.76c0,0.56-0.31,1.13-1,1.76l-0.12,0.06h8.97c4.52,0,6.84,2.32,6.84,5.83v16.13
				c0,4.39-2.19,6.9-6.84,6.9H153.72z M173.61,23.83c0-0.82-0.5-1.51-2.14-1.51h-14.31c-1.38,0-2.07,0.56-2.07,1.44v1.76h18.51
				V23.83z M173.61,30.04h-18.51v3.51h18.51V30.04z M173.61,38.01h-18.51v2.07c0,0.94,0.56,1.57,2.07,1.57h14.62
				c1.32,0,1.82-0.56,1.82-1.57V38.01z"/>
		</g>
		<g>
			<path class="st4" d="M244.26,50.43c-1.91-0.26-4.32-0.57-6.68-1.16c-4.28,1.11-9.16,1.36-10.04,1.39c-0.01,0-0.02,0-0.04,0
				c-0.35,0-0.66-0.2-0.81-0.52c-0.15-0.33-0.09-0.71,0.15-0.98c0.13-0.15,1.59-1.76,3.28-3.61c-1.56-1.47-2.37-3.09-2.95-4.78h7.32
				c0.49-0.53,0.86-0.93,1.04-1.11c0,0,0.01-0.01,0.01-0.01c1.91-1.88,3.87-1.76,5.17-1.51c1.39,0.27,2.57,1.12,3.26,2.32
				c0.06,0.1,0.1,0.2,0.15,0.3c1.9-0.07,2.85-1.35,2.85-2.63c0-1.32-1-2.64-3.01-2.64h-8.28v-6.15h5.65c1.94,0,2.95-1.32,2.95-2.63
				c0-1.32-1-2.64-2.95-2.64h-5.65v-1.82c0-2.63-2.19-4.02-4.39-4.02c-2.13,0-4.27,1.32-4.27,4.02v1.82h-7.59v-1.82
				c0-2.63-2.2-3.95-4.33-3.95c-2.2,0-4.33,1.32-4.33,3.95v1.82h-4.2c-1.88,0-2.89,1.32-2.89,2.64c0,1.32,1,2.63,2.89,2.63h4.2v6.15
				h-6.96c-0.69,0-1.26,0.25-1.69,0.63c0.63-4.39,0.88-9.29,0.88-14.56V17.8h35.51c3.2,0,6.21-1.5,6.21-5.39V7.76
				c0-3.58-2.76-5.4-6.21-5.4h-37.84c-4.2,0-7.03,2.63-7.03,6.46v12.11c0,15.37-1.07,25.98-4.39,33.51
				c-0.31,0.69-0.44,1.32-0.44,1.88c0,1.69,1.26,2.76,2.64,2.76c1.13,0,2.32-0.63,3.2-1.94c3.33-4.89,5.58-10.73,6.9-17.57
				c0.44,0.69,1.13,1.19,2.26,1.19h4.2v11.04c-1.38,0.13-2.82,0.19-4.39,0.31c-2.64,0.19-3.83,2.07-3.83,3.95
				c0,2.01,1.38,4.01,3.95,4.01c1,0,6.72-0.75,20.46-5.02c1.5-0.44,2.2-1.63,2.2-2.7c0-1.32-1-2.57-2.7-2.57
				c-0.19,0-0.38,0-0.56,0.06c-2.39,0.38-4.46,0.69-6.34,0.94V40.77h4.02c4.89,17.82,22.03,18.7,22.4,18.7
				c3.26,0,5.21-2.51,5.21-4.89C248.4,52.63,247.14,50.81,244.26,50.43 M202.97,9.27c0-0.69,0.69-1.44,1.63-1.44h29.36
				c0.94,0,1.69,0.63,1.69,1.38v2.13c0,0.88-0.5,1.38-1.69,1.38h-30.99V9.27z M219.41,29.35H227v6.15h-7.59V29.35z"/>
		</g>
	</g>
	<g>
		<defs>
			<path id="SVGID_00000013908479778045124380000008693544206385136298_" d="M236.15,40.28c-1.04,1.06-8.66,9.48-8.66,9.48
				s14.33-0.59,15.87-4.86c1.08-2.98-0.46-5.43-2.84-5.89c-0.38-0.07-0.76-0.12-1.16-0.12C238.33,38.9,237.23,39.23,236.15,40.28"/>
		</defs>
		<clipPath id="SVGID_00000163784674029616804140000010917325480051682698_">
			<use xlink:href="#SVGID_00000013908479778045124380000008693544206385136298_"  style="overflow:visible;"/>
		</clipPath>
		
			<linearGradient id="SVGID_00000115487228992951866430000009632285897427809180_" gradientUnits="userSpaceOnUse" x1="-477.625" y1="495.0768" x2="-475.925" y2="495.0768" gradientTransform="matrix(2.7582 -8.0333 8.0333 2.7582 -2426.3157 -5150.6436)">
			<stop  offset="0" style="stop-color:#73B0E0"/>
			<stop  offset="0.0716" style="stop-color:#6BAADC"/>
			<stop  offset="0.1905" style="stop-color:#529AD2"/>
			<stop  offset="0.3412" style="stop-color:#1683C3"/>
			<stop  offset="0.3475" style="stop-color:#1082C2"/>
			<stop  offset="0.4219" style="stop-color:#1678B6"/>
			<stop  offset="1" style="stop-color:#203E77"/>
		</linearGradient>
		
			<polygon style="clip-path:url(#SVGID_00000163784674029616804140000010917325480051682698_);fill:url(#SVGID_00000115487228992951866430000009632285897427809180_);" points="
			242.65,54.97 247.78,40.04 229.28,33.69 224.15,48.62 		"/>
	</g>
</g>
</svg>
